<svg width="458" height="30" viewBox="0 0 458 30" fill="none" xmlns="http://www.w3.org/2000/svg">
<g clip-path="url(#clip0_7_10)">
<path d="M193.273 15.9353L-5.13439 15.9349M2.56991 7.69104C7.80466 13.6766 13.8386 14.8395 25.9811 15.9357C14.7041 17.0796 9.49317 18.802 2.56991 24.1804M438.719 15.9353L244.225 15.9357" stroke="black" stroke-width="2" stroke-miterlimit="11.4737" stroke-linecap="round" stroke-linejoin="round"/>
<path d="M19.4889 7.69104C25.9006 12.6248 31.3213 13.934 42.353 15.1874C33.1248 14.9269 28.1384 16.7028 19.4889 22.3091" stroke="black" stroke-width="2" stroke-miterlimit="11.4737" stroke-linecap="round" stroke-linejoin="round"/>
<path d="M215.942 22.4361L208.736 25.3881C208.736 25.3881 217.767 28.7742 223.411 27.0378C229.054 25.3013 233.31 22.0739 230.425 16.8413C227.54 11.6088 233.917 8.71806 233.917 8.71806C233.917 8.71806 232.267 8.0235 230.425 5.7661C228.584 3.50869 225.907 2.69459 222.054 3.64245C218.201 4.59031 214.496 2.4668 214.496 2.4668C214.496 2.4668 216.23 5.82166 218.722 6.63433C217.502 7.47123 214.555 6.89481 210.474 5.24517C213.472 8.31654 215.171 9.29935 218.201 9.79554C215.668 11.2002 214.892 12.178 211.429 10.8887C212.461 12.2943 214.496 14.2058 214.496 14.2058M215.942 22.4361C215.942 22.4361 225.249 20.5949 223.411 16.3585C221.573 12.122 214.496 14.2058 214.496 14.2058M215.942 22.4361C212.209 21.3942 208.128 19.1368 207.522 13.4065C211.798 15.5335 214.496 14.2058 214.496 14.2058" stroke="black" stroke-width="2" stroke-miterlimit="11.4737" stroke-linecap="round"/>
<circle cx="227.683" cy="6.93525" r="0.95564" fill="black"/>
<path d="M455.988 14.8402L443.516 18.3936L443.465 18.4081L443.419 18.433L432.222 24.3895L434.001 15.163L434.02 15.0631L433.999 14.9637L432.033 5.77514L443.348 11.5032L443.396 11.5271L443.447 11.5406L455.988 14.8402Z" fill="black" stroke="black"/>
</g>
<defs>
<clipPath id="clip0_7_10">
<rect width="458" height="30" fill="white"/>
</clipPath>
</defs>
</svg>
