<svg width="100" height="98" viewBox="0 0 100 98" fill="none" xmlns="http://www.w3.org/2000/svg">
<g id="Group 1">
<g id="Polygon 2">
<g id="Polygon 2_2" filter="url(#filter0_d_1_33)">
<path d="M97.3847 53.6444L89.6924 40.2998L85.2224 44.3645L97.3847 53.6444Z" fill="#E2E8F0"/>
<path d="M54.5571 38.6878L3.33561 0.785274L51.4638 43.1818L54.5571 38.6878Z" fill="#F8FAFC"/>
<path d="M66.8562 28.8759L52.0097 0.0574395L61.8355 35.1756L69.1023 36.9737L66.8562 28.8759Z" fill="#E2E8F0"/>
<path d="M38.0898 57.0761L11.7967 55.4385L39.1816 61.2972L56.0128 57.0761L38.0898 57.0761Z" fill="#94A3B8"/>
<path d="M61.9264 45.0124L75.8894 37.8595L75.3914 35.823L69.1023 36.9737L61.9264 45.0124Z" fill="#E2E8F0"/>
<path d="M69.1023 36.9737L71.7522 32.0822L66.8562 28.8759L69.1023 36.9737Z" fill="#E2E8F0"/>
<path d="M76.3684 27.5756L74.6398 28.8759L78.1831 32.9862L76.3684 27.5756Z" fill="#64748B"/>
<path d="M51.4638 43.1818L3.33561 0.785274L36.2702 34.4477L45.914 43.6367L51.4638 43.1818Z" fill="#94A3B8"/>
<path d="M56.0128 57.0761L54.5571 38.6878L51.4638 43.1818L56.0128 57.0761Z" fill="#E2E8F0"/>
<path d="M36.7682 75.9449L22.3934 97.2342L39.5949 81.8789L36.7682 75.9449Z" fill="#334155"/>
<path d="M69.1023 36.9737L75.3914 35.823L77.484 35.8229L81.0083 39.6336L85.2224 38.6878L78.1831 32.9862L71.7522 32.0822L69.1023 36.9737Z" fill="#334155"/>
<path d="M84.3521 36.4417L82.4162 32.8953L76.3684 27.5756L78.1831 32.9862L85.2224 38.6878L84.3521 36.4417Z" fill="#94A3B8"/>
<path d="M87.1893 37.5648L84.3521 36.4417L85.2224 38.6878L89.6924 40.2998L87.1893 37.5648Z" fill="#64748B"/>
<path d="M89.6924 40.2998L85.2224 26.0776L82.4162 32.8953L84.3521 36.4417L87.1893 37.5648L89.6924 40.2998Z" fill="#CBD5E1"/>
<path d="M74.6398 28.8759L69.8116 27.5755L66.8562 28.8759L71.7522 32.0822L78.1831 32.9862L74.6398 28.8759Z" fill="#94A3B8"/>
<path d="M85.2224 44.3645L89.6924 40.2998L85.3503 39.9667L81.0083 39.6336L75.8894 37.8595L85.2224 44.3645Z" fill="#CBD5E1"/>
<path d="M85.2224 50.1826L85.2224 44.3645L75.8894 37.8595L71.6374 51.6429L77.484 50.1826L85.2224 50.1826Z" fill="#64748B"/>
<path d="M71.6374 51.6429L75.8894 37.8595L61.9264 45.0124L71.6374 51.6429Z" fill="#94A3B8"/>
<path d="M52.0097 76.4983L64.019 71.9418L61.9264 45.0124L56.0128 57.0761L53.972 69.6309L52.0097 76.4983Z" fill="#94A3B8"/>
<path d="M52.0097 0.0574395L48.3705 13.9773L61.8355 35.1756L52.0097 0.0574395Z" fill="#CBD5E1"/>
<path d="M48.3705 13.9773L45.914 7.60874L44.1854 18.7992L61.8355 35.1756L48.3705 13.9773Z" fill="#94A3B8"/>
<path d="M44.1854 18.7992L39.1816 13.9773L38.0898 24.8039C38.0898 25.5317 48.9164 34.4844 54.5571 38.6878L61.8355 35.1756L44.1854 18.7992Z" fill="#64748B"/>
<path d="M61.9264 45.0124L69.1023 36.9737L61.8355 35.1756L54.5571 38.6878L56.0128 57.0761L61.9264 45.0124Z" fill="#CBD5E1"/>
<path d="M8.52144 41.2712L14.0712 53.1895L38.0898 57.0761L56.0128 57.0761L14.6171 43.8042L8.52144 41.2712Z" fill="#334155"/>
<path d="M56.0128 57.0761L35.4035 48.4691L14.6171 43.8042L56.0128 57.0761Z" fill="#64748B"/>
<path d="M56.0128 57.0761L51.4638 43.1818L45.914 43.6367L56.0128 57.0761Z" fill="#64748B"/>
<path d="M77.484 50.1826L71.6374 51.6429L64.019 71.9418L77.484 50.1826Z" fill="#94A3B8"/>
<path d="M64.019 71.9418L71.6374 51.6429L61.9264 45.0124L64.019 71.9418Z" fill="#334155"/>
<path d="M39.1816 61.2972L15.5269 65.6643L39.5949 67.9612L48.3705 64.9364L39.1816 61.2972Z" fill="#E2E8F0"/>
<path d="M56.0128 57.0761L39.1816 61.2972L48.3705 64.9364L56.0128 57.0761Z" fill="#E2E8F0"/>
<path d="M39.5949 81.8789L46.3274 77.2729L45.914 77.2154L36.7682 75.9449L39.5949 81.8789Z" fill="#334155"/>
<path d="M39.5949 67.9612L36.7682 75.9449L45.914 77.2154L53.972 69.6309L39.5949 67.9612Z" fill="#334155"/>
<path d="M48.3705 64.9364L39.5949 67.9612L53.972 69.6309L48.3705 64.9364Z" fill="#64748B"/>
<path d="M56.0128 57.0761L48.3705 64.9364L53.972 69.6309L56.0128 57.0761Z" fill="#64748B"/>
<path d="M89.6924 40.2998L85.2224 38.6878L81.0083 39.6336L85.3503 39.9667L89.6924 40.2998Z" fill="#64748B"/>
<path d="M39.5949 67.9612L3.33561 87.7723L36.7682 75.9449L39.5949 67.9612Z" fill="#E2E8F0"/>
<path d="M46.3274 77.2729L52.0097 76.4983L53.972 69.6309L45.914 77.2154L46.3274 77.2729Z" fill="#334155"/>
<path d="M3.33561 0.785274L9.52219 8.51854L15.5269 21.4376L36.2702 34.4477L3.33561 0.785274Z" fill="#94A3B8"/>
<path d="M15.5269 21.4376L7.70261 14.4322L16.8436 30.5461L31.0389 37.8595L45.914 43.6367L36.2702 34.4477L15.5269 21.4376Z" fill="#64748B"/>
<path d="M16.8436 30.5461L10.1111 24.8039L14.0712 39.9667L35.4035 48.4691L31.0389 37.8595L16.8436 30.5461Z" fill="#334155"/>
<path d="M56.0128 57.0761L45.914 43.6367L31.0389 37.8595L56.0128 57.0761Z" fill="#334155"/>
<path d="M35.4035 48.4691L56.0128 57.0761L31.0389 37.8595L35.4035 48.4691Z" fill="#334155"/>
<path d="M97.3847 53.6444L85.2224 44.3645L85.2224 50.1826L97.3847 53.6444Z" fill="#CBD5E1"/>
</g>
</g>
</g>
<defs>
<filter id="filter0_d_1_33" x="-0.664392" y="0.0574341" width="102.049" height="105.177" filterUnits="userSpaceOnUse" color-interpolation-filters="sRGB">
<feFlood flood-opacity="0" result="BackgroundImageFix"/>
<feColorMatrix in="SourceAlpha" type="matrix" values="0 0 0 0 0 0 0 0 0 0 0 0 0 0 0 0 0 0 127 0" result="hardAlpha"/>
<feOffset dy="4"/>
<feGaussianBlur stdDeviation="2"/>
<feComposite in2="hardAlpha" operator="out"/>
<feColorMatrix type="matrix" values="0 0 0 0 0 0 0 0 0 0 0 0 0 0 0 0 0 0 0.25 0"/>
<feBlend mode="normal" in2="BackgroundImageFix" result="effect1_dropShadow_1_33"/>
<feBlend mode="normal" in="SourceGraphic" in2="effect1_dropShadow_1_33" result="shape"/>
</filter>
</defs>
</svg>
