<svg width="55" height="55" viewBox="0 0 55 55" fill="none" xmlns="http://www.w3.org/2000/svg">
<path d="M19.5598 40.8235L7.58214 45.73C7.58214 45.73 22.5935 51.3582 31.9736 48.472C41.3537 45.5858 48.4275 40.2214 43.6324 31.5244C38.8374 22.8274 49.4351 18.0226 49.4351 18.0226C49.4351 18.0226 46.6932 16.8682 43.6324 13.1161C40.5716 9.36406 36.1228 8.01094 29.7188 9.58639C23.3147 11.1618 17.1563 7.63232 17.1563 7.63232C17.1563 7.63232 20.0382 13.2085 24.1809 14.5592C22.1526 15.9502 17.2541 14.9922 10.4715 12.2503C15.4537 17.3552 18.2782 18.9888 23.3147 19.8135C19.1047 22.1482 17.8147 23.7734 12.0589 21.6304C13.7733 23.9668 17.1563 27.1439 17.1563 27.1439M19.5598 40.8235C19.5598 40.8235 35.028 37.7633 31.9736 30.7218C28.9193 23.6804 17.1563 27.1439 17.1563 27.1439M19.5598 40.8235C13.3545 39.0918 6.57197 35.3397 5.56494 25.8154C12.6713 29.3505 17.1563 27.1439 17.1563 27.1439" stroke="white" stroke-width="3.5" stroke-miterlimit="11.4737" stroke-linecap="round"/>
<circle cx="39.0747" cy="15.0593" r="1.58838" fill="white"/>
</svg>
