<svg width="100" height="100" viewBox="0 0 100 100" fill="none" xmlns="http://www.w3.org/2000/svg">
<path d="M5.65521 26.8667C5.65521 22.4484 9.23693 18.8667 13.6552 18.8667H86.4472C90.8655 18.8667 94.4472 22.4484 94.4472 26.8667V27.2717C94.4472 31.6899 90.8655 35.2717 86.4472 35.2717H13.6552C9.23693 35.2717 5.65521 31.6899 5.65521 27.2717V26.8667Z" fill="#1E1E1E"/>
<path d="M6.1792 23.8099C6.1792 19.3916 9.76092 15.8099 14.1792 15.8099H48.3843C52.8026 15.8099 56.3843 19.3916 56.3843 23.8099V24.2149C56.3843 28.6332 52.8026 32.2149 48.3843 32.2149H14.1792C9.76092 32.2149 6.1792 28.6332 6.1792 24.2149V23.8099Z" fill="#856800"/>
<rect x="1.97675" y="24.9287" width="96.5591" height="64.4668" rx="5.5" fill="#A68100" stroke="#1E1E1E"/>
</svg>
