<svg width="100" height="100" viewBox="0 0 100 100" fill="none" xmlns="http://www.w3.org/2000/svg">
<g clip-path="url(#clip0_13_20)">
<path d="M2.29047 25.5593C1.20542 23.68 1.84934 21.2768 3.7287 20.1918L33.7593 2.85362C35.6386 1.76856 38.0418 2.41248 39.1268 4.29185V4.29185C40.2119 6.17122 39.568 8.57436 37.6886 9.65941L7.65804 26.9976C5.77867 28.0826 3.37553 27.4387 2.29047 25.5593V25.5593Z" fill="#1E1E1E"/>
<path d="M1.7757 24.1657C0.690646 22.2863 1.33457 19.8832 3.21393 18.7981L17.2363 10.7023C19.1157 9.61726 21.5188 10.2612 22.6038 12.1406V12.1406C23.6889 14.0199 23.045 16.4231 21.1656 17.5081L7.14326 25.6039C5.26389 26.689 2.86075 26.0451 1.7757 24.1657V24.1657Z" fill="#856800"/>
<rect x="-0.104094" y="25.4571" width="46.7767" height="31.4032" rx="5.5" transform="rotate(-30 -0.104094 25.4571)" fill="#A68100" stroke="#1E1E1E"/>
<g opacity="0.6">
<path d="M44.023 53.6235C44.3506 50.9622 46.7735 49.0704 49.4348 49.398L91.9589 54.6322C94.6201 54.9598 96.5119 57.3827 96.1844 60.044V60.044C95.8568 62.7052 93.4339 64.597 90.7726 64.2694L48.2485 59.0352C45.5873 58.7076 43.6955 56.2847 44.023 53.6235V53.6235Z" fill="#1E1E1E"/>
<path d="M44.5519 51.8657C44.8795 49.2044 47.3024 47.3126 49.9636 47.6402L69.8197 50.0842C72.4809 50.4118 74.3727 52.8347 74.0451 55.4959V55.4959C73.7176 58.1572 71.2947 60.049 68.6334 59.7214L48.7774 57.2774C46.1161 56.9498 44.2243 54.5269 44.5519 51.8657V51.8657Z" fill="#856800"/>
<rect x="41.8393" y="51.8726" width="57.5604" height="38.5653" rx="5.5" transform="rotate(7.01718 41.8393 51.8726)" fill="#A68100" stroke="#1E1E1E"/>
</g>
</g>
<defs>
<clipPath id="clip0_13_20">
<rect width="100" height="100" fill="white"/>
</clipPath>
</defs>
</svg>
