<svg width="100" height="100" viewBox="0 0 100 100" fill="none" xmlns="http://www.w3.org/2000/svg">
<g clip-path="url(#clip0_7_42)">
<rect width="100" height="100" rx="9" fill="url(#paint0_linear_7_42)"/>
<path d="M27.051 88.5608C25.9465 88.553 25.0574 87.6513 25.0653 86.5467L25.1004 81.5917C25.1082 80.4872 26.01 79.5981 27.1145 79.6059L72.949 79.9309C74.0535 79.9387 74.9426 80.8405 74.9348 81.945L74.8996 86.9C74.8918 88.0045 73.9901 88.8936 72.8855 88.8858L27.051 88.5608Z" fill="white"/>
<path d="M54.5406 17.1394C52.9775 15.2232 50.157 14.9368 48.2407 16.4998V16.4998C46.3244 18.0629 46.0381 20.8834 47.6011 22.7997L80.2533 62.8313C81.8163 64.7475 84.6369 65.0339 86.5531 63.4709V63.4709C88.4694 61.9079 88.7558 59.0873 87.1927 57.171L54.5406 17.1394Z" fill="white"/>
<path d="M47.1699 17.1394C48.7329 15.2232 51.5534 14.9368 53.4697 16.4998V16.4998C55.386 18.0629 55.6724 20.8834 54.1093 22.7997L21.4572 62.8313C19.8941 64.7475 17.0736 65.0339 15.1573 63.4709V63.4709C13.241 61.9079 12.9547 59.0873 14.5177 57.171L47.1699 17.1394Z" fill="white"/>
<circle cx="50.9441" cy="41.5493" r="5.38019" fill="white" fill-opacity="0.8"/>
<circle cx="50.9441" cy="55.3802" r="5.38019" fill="white" fill-opacity="0.4"/>
<circle cx="50.9441" cy="70.1761" r="5.38019" fill="white" fill-opacity="0.2"/>
</g>
<defs>
<linearGradient id="paint0_linear_7_42" x1="50" y1="0" x2="50" y2="100" gradientUnits="userSpaceOnUse">
<stop stop-color="#001355"/>
<stop offset="1" stop-color="#0038FF"/>
</linearGradient>
<clipPath id="clip0_7_42">
<rect width="100" height="100" fill="white"/>
</clipPath>
</defs>
</svg>
