<svg width="100" height="100" viewBox="0 0 100 100" fill="none" xmlns="http://www.w3.org/2000/svg">
<g clip-path="url(#clip0_13_10)">
<path d="M54.286 74.9597L56.9557 59.455C57.0378 58.9781 56.4621 58.6743 56.1148 59.0113L34.5767 79.9084C34.2544 80.2211 34.4758 80.7673 34.9249 80.7673L46.9267 80.7673C47.2567 80.7673 47.4962 81.0812 47.4089 81.3995L42.5127 99.2582C42.3752 99.7598 42.9997 100.112 43.3577 99.7345L65.5075 76.3887C65.8098 76.0701 65.5839 75.5445 65.1448 75.5445H54.7788C54.4687 75.5445 54.2334 75.2652 54.286 74.9597Z" fill="#8F00FF" fill-opacity="0.3"/>
<path d="M31.9124 26.7377L36.2559 1.51223C36.338 1.03531 35.7623 0.731547 35.4149 1.06854L0.885194 34.5707C0.562871 34.8835 0.784266 35.4296 1.23337 35.4296H20.9065C21.2364 35.4296 21.4759 35.7436 21.3887 36.0618L13.4017 65.194C13.2642 65.6955 13.8887 66.0476 14.2467 65.6703L49.829 28.1667C50.1312 27.8481 49.9054 27.3225 49.4663 27.3225H32.4051C32.0951 27.3225 31.8598 27.0433 31.9124 26.7377Z" fill="#8F00FF"/>
<path d="M86.1556 25.7807L89.2808 7.63061C89.3629 7.15369 88.7872 6.84992 88.4399 7.18691L63.3662 31.5144C63.0439 31.8271 63.2653 32.3733 63.7144 32.3733L77.8039 32.3733C78.1339 32.3733 78.3733 32.6872 78.2861 33.0055L72.5488 53.9322C72.4113 54.4337 73.0357 54.7858 73.3937 54.4085L99.1991 27.2097C99.5014 26.8912 99.2755 26.3656 98.8364 26.3656H86.6483C86.3383 26.3656 86.103 26.0863 86.1556 25.7807Z" fill="#8F00FF" fill-opacity="0.6"/>
</g>
<defs>
<clipPath id="clip0_13_10">
<rect width="100" height="100" fill="white"/>
</clipPath>
</defs>
</svg>
