<svg width="100" height="100" viewBox="0 0 100 100" fill="none" xmlns="http://www.w3.org/2000/svg">
<g clip-path="url(#clip0_7_16)">
<rect width="100" height="100" rx="9" fill="url(#paint0_linear_7_16)" fill-opacity="0.7"/>
<path d="M62.6685 39.6411L68.5205 5.6544C68.6847 4.70057 67.5333 4.09304 66.8387 4.76702L19.7834 50.422C19.1387 51.0475 19.5815 52.1397 20.4797 52.1397L46.833 52.1397C47.4929 52.1397 47.9719 52.7677 47.7974 53.4041L37.0584 92.5744C36.7833 93.5776 38.0323 94.2817 38.7482 93.5271L87.1621 42.4991C87.7666 41.862 87.3149 40.8108 86.4366 40.8108H63.654C63.0339 40.8108 62.5633 40.2523 62.6685 39.6411Z" stroke="white" stroke-width="3"/>
<rect x="4.65057" y="9.90393" width="20.1747" height="3.1441" rx="1.57205" fill="white"/>
<rect x="18.013" y="20.7336" width="20.1747" height="3.1441" rx="1.57205" fill="white"/>
<rect x="5.13098" y="59.8603" width="20.1747" height="3.1441" rx="1.57205" fill="white"/>
<rect x="16.5283" y="82.393" width="8.29694" height="3.1441" rx="1.57205" fill="white" fill-opacity="0.5"/>
<rect x="3.16583" y="35.3188" width="8.29694" height="3.1441" rx="1.57205" fill="white" fill-opacity="0.5"/>
</g>
<defs>
<linearGradient id="paint0_linear_7_16" x1="100" y1="46.4978" x2="0" y2="46.4978" gradientUnits="userSpaceOnUse">
<stop stop-color="#8F00FF"/>
<stop offset="1" stop-color="#900093"/>
</linearGradient>
<clipPath id="clip0_7_16">
<rect width="100" height="100" fill="white"/>
</clipPath>
</defs>
</svg>
