<svg width="96" height="96" viewBox="0 0 96 96" fill="none" xmlns="http://www.w3.org/2000/svg">
<path d="M46.1984 1.73717C46.9257 0.228499 49.0743 0.228498 49.8016 1.73717L63.96 31.107C64.1565 31.5146 64.4854 31.8435 64.893 32.0401L94.2628 46.1984C95.7715 46.9257 95.7715 49.0743 94.2628 49.8016L64.893 63.96C64.4854 64.1565 64.1565 64.4854 63.96 64.893L49.8016 94.2628C49.0743 95.7715 46.9257 95.7715 46.1984 94.2628L32.0401 64.893C31.8435 64.4854 31.5146 64.1565 31.107 63.96L1.73717 49.8016C0.228499 49.0743 0.228498 46.9257 1.73717 46.1984L31.107 32.0401C31.5146 31.8435 31.8435 31.5146 32.0401 31.107L46.1984 1.73717Z" fill="white"/>
</svg>
