<svg width="100" height="100" viewBox="0 0 100 100" fill="none" xmlns="http://www.w3.org/2000/svg">
<g clip-path="url(#clip0_1_7)">
<path d="M100 50C100 77.6142 77.6142 100 50 100C22.3858 100 0 77.6142 0 50C0 22.3858 22.3858 0 50 0C77.6142 0 100 22.3858 100 50Z" fill="#D9D9D9"/>
<path d="M60.9233 33.2125C45.159 22.0735 36.0597 30.0445 23.8007 36.2036C23.3421 36.434 23.475 37.1366 23.9867 37.1753C31.7653 37.7633 38.1502 38.3032 44.8641 40.3142C51.1279 42.1904 55.1173 47.4914 64.6527 49.0294C73.6691 49.8221 81.8825 46.2899 87.2721 37.9246C87.4999 37.571 87.1952 37.1228 86.7784 37.179C71.3029 39.2629 67.8969 36.461 61.0034 33.259C60.9759 33.2462 60.9481 33.23 60.9233 33.2125Z" fill="#07B0CE"/>
<path d="M48.0044 54.2021C32.2401 43.0631 23.1409 51.0342 10.8818 57.1932C10.4233 57.4236 10.5563 58.1243 11.0682 58.1608C18.833 58.7135 25.1294 59.0147 31.8427 61.0255C38.1065 62.9017 42.1984 68.4811 51.7338 70.019C60.7502 70.8117 68.9636 67.2795 74.3532 58.9142C74.5811 58.5606 74.2763 58.1125 73.8595 58.1686C58.3841 60.2525 54.978 57.4506 48.0845 54.2486C48.057 54.2359 48.0292 54.2197 48.0044 54.2021Z" fill="#07B0CE"/>
</g>
<defs>
<clipPath id="clip0_1_7">
<rect width="100" height="100" fill="white"/>
</clipPath>
</defs>
</svg>
