<svg width="250" height="300" viewBox="0 0 250 300" fill="none" xmlns="http://www.w3.org/2000/svg">
<g clip-path="url(#clip0_5_2)">
<path d="M1.00001 290L1 10C1 5.02944 5.02944 1 10 1H240C244.971 1 249 5.02944 249 10V290C249 294.971 244.971 299 240 299H10C5.02946 299 1.00001 294.971 1.00001 290Z" stroke="#1E293B" stroke-width="2"/>
<path d="M198.329 103.757C198.329 140.474 167.763 170.284 130.002 170.284C92.2409 170.284 61.6747 140.474 61.6747 103.757C61.6747 67.0405 92.2409 37.231 130.002 37.231C167.763 37.231 198.329 67.0405 198.329 103.757Z" fill="#1E293B" stroke="#1E293B" stroke-width="2"/>
<path d="M127.579 178.699C79.5481 178.699 38.1194 186.467 27.5798 298.042H225.791C229.531 190.704 175.61 178.699 127.579 178.699Z" fill="#1E293B" stroke="#1E293B" stroke-width="2"/>
</g>
<defs>
<clipPath id="clip0_5_2">
<rect width="250" height="300" fill="white"/>
</clipPath>
</defs>
</svg>
